<?xml version="1.0" encoding="UTF-8" standalone="no"?>
<svg
   width="429"
   height="63.264247710842746"
   viewBox="0 0 369.54838709677415 54.49697133434201"
   class="css-1j8o68f"
   version="1.1"
   id="svg7"
   sodipodi:docname="logoFull.svg"
   inkscape:version="1.3 (0e150ed6c4, 2023-07-21)"
   xmlns:inkscape="http://www.inkscape.org/namespaces/inkscape"
   xmlns:sodipodi="http://sodipodi.sourceforge.net/DTD/sodipodi-0.dtd"
   xmlns="http://www.w3.org/2000/svg"
   xmlns:svg="http://www.w3.org/2000/svg">
  <sodipodi:namedview
     id="namedview7"
     pagecolor="#505050"
     bordercolor="#eeeeee"
     borderopacity="1"
     inkscape:showpageshadow="0"
     inkscape:pageopacity="0"
     inkscape:pagecheckerboard="0"
     inkscape:deskcolor="#505050"
     inkscape:zoom="3.2843823"
     inkscape:cx="214.65223"
     inkscape:cy="31.512775"
     inkscape:window-width="1920"
     inkscape:window-height="1009"
     inkscape:window-x="1912"
     inkscape:window-y="-8"
     inkscape:window-maximized="1"
     inkscape:current-layer="svg7" />
  <defs
     id="SvgjsDefs3357">
    <clipPath
       clipPathUnits="userSpaceOnUse"
       id="clipPath27">
      <rect
         style="fill:none;stroke:#000000;stroke-width:0.999999;stroke-linecap:butt;stroke-linejoin:bevel;paint-order:stroke markers fill;stop-color:#000000"
         id="rect28-6"
         width="46.160622"
         height="39.922417"
         x="86.574379"
         y="420.06253" />
    </clipPath>
    <clipPath
       clipPathUnits="userSpaceOnUse"
       id="clipPath51">
      <path
         id="path51"
         style="stroke-width:0.0999999;stroke-linecap:square;paint-order:markers fill stroke;stop-color:#000000"
         d="m 1806.4991,-753.5228 h 1637.2646 v 66.90533 H 1806.4991 Z" />
    </clipPath>
    <clipPath
       clipPathUnits="userSpaceOnUse"
       id="clipPath52">
      <path
         id="path52"
         style="stroke-width:0.1;stroke-linecap:square;paint-order:markers fill stroke;stop-color:#000000"
         d="m -880.82767,-187.29769 h 1640.84 v 73.28155 h -1640.84 z" />
    </clipPath>
    <clipPath
       clipPathUnits="userSpaceOnUse"
       id="clipPath54">
      <path
         id="path54"
         style="stroke-width:0.0999999;stroke-linecap:square;paint-order:markers fill stroke;stop-color:#000000"
         d="m 1691.1994,-792.32001 h 1634.8919 v 92.82806 H 1691.1994 Z" />
    </clipPath>
    <clipPath
       clipPathUnits="userSpaceOnUse"
       id="clipPath55">
      <path
         id="path55"
         style="stroke-width:0.1;stroke-linecap:square;paint-order:markers fill stroke;stop-color:#000000"
         d="m 1736.6147,-745.57287 h 1589.4765 v 72.46715 H 1736.6147 Z" />
    </clipPath>
    <clipPath
       clipPathUnits="userSpaceOnUse"
       id="clipPath5">
      <rect
         style="fill:#000000;stroke:#000000;stroke-width:0;stroke-linejoin:bevel;paint-order:stroke markers fill;stop-color:#000000"
         id="rect5-4"
         width="20"
         height="200"
         x="530"
         y="595" />
    </clipPath>
    <linearGradient
       id="swatch18"
       inkscape:swatch="solid">
      <stop
         style="stop-color:#f887ff;stop-opacity:1;"
         offset="0"
         id="stop18" />
    </linearGradient>
    <linearGradient
       id="SvgjsLinearGradient3362">
      <stop
         id="SvgjsStop3363"
         stop-color="#ef4136"
         offset="0"
         style="stop-color:#000000;stop-opacity:0;" />
      <stop
         id="SvgjsStop3364"
         stop-color="#fbb040"
         offset="1" />
    </linearGradient>
    <filter
       inkscape:collect="always"
       style="color-interpolation-filters:sRGB"
       id="filter14"
       x="-0.020868279"
       y="-0.28403357"
       width="1.0417366"
       height="1.5680671">
      <feGaussianBlur
         inkscape:collect="always"
         stdDeviation="4.4195625"
         id="feGaussianBlur14" />
    </filter>
    <filter
       inkscape:collect="always"
       style="color-interpolation-filters:sRGB"
       id="filter17"
       x="-0.026085349"
       y="-0.35504196"
       width="1.0521707"
       height="1.7100839">
      <feGaussianBlur
         inkscape:collect="always"
         stdDeviation="1.1048906"
         id="feGaussianBlur17" />
    </filter>
    <filter
       inkscape:collect="always"
       style="color-interpolation-filters:sRGB"
       id="filter18"
       x="-0.021898811"
       y="-0.29805992"
       width="1.0437977"
       height="1.5961198">
      <feGaussianBlur
         inkscape:collect="always"
         stdDeviation="0.21825"
         id="feGaussianBlur18" />
    </filter>
  </defs>
  <g
     id="SvgjsG3358"
     featurekey="symbolFeature-0"
     transform="matrix(0.6559444408744383,0,0,0.6559444408744383,-4.292397614482525,-5.247766339827932)"
     fill="url(#SvgjsLinearGradient3362)"
     style="fill:#883caf;fill-opacity:1">
    <g
       id="g6"
       style="fill:#883caf;fill-opacity:1">
      <path
         d="M90.041,59.881c-3.754-14.32-8.081-23.74-18.047-26.447c-1.521-0.412-2.953-0.612-4.38-0.612   c-3.007,0-5.426,0.905-7.773,1.783c-2.157,0.807-4.566,1.692-7.9,1.992c0.432-4.761-0.388-7.032-1.184-9.223   c-0.606-1.669-1.179-3.245-1.318-6.071c-0.305-6.189,6.813-10.98,6.885-11.028c0.57-0.378,0.728-1.146,0.351-1.718   c-0.378-0.571-1.145-0.729-1.718-0.351c-0.341,0.225-8.369,5.609-7.994,13.22c0.157,3.199,0.852,5.108,1.464,6.794   c0.785,2.161,1.463,4.027,1.021,8.45c-0.001,0.013,0.001,0.025,0,0.037c-4.562-0.022-7.535-1.128-10.159-2.11   c-2.333-0.875-4.747-1.779-7.742-1.779c-1.429,0-2.864,0.201-4.385,0.615c-9.975,2.708-14.301,12.127-18.047,26.448   c-4.344,16.587-3.143,27.707,3.295,30.51c1.048,0.459,2.151,0.691,3.278,0.691c5.724,0,10.987-6.018,14.833-10.416l1.046-1.213   c3.135-3.666,9.7-5.768,18.012-5.768c9.039,0,14.593,1.779,18.009,5.774l1.048,1.215c3.841,4.392,9.101,10.404,14.829,10.404   c1.132,0,2.233-0.231,3.274-0.687C93.174,87.588,94.377,76.468,90.041,59.881z M85.414,87.363c-0.629,0.276-1.268,0.41-1.95,0.41   c-4.227,0-8.913-5.356-12.332-9.266l-1.037-1.203c-4.097-4.789-10.424-6.926-20.517-6.926c-9.28,0-16.76,2.523-20.52,6.921   l-1.039,1.203c-3.422,3.913-8.109,9.274-12.333,9.274c-0.667,0-1.326-0.141-1.956-0.416c-4.509-1.962-5.078-12.669-1.417-26.642   c3.445-13.178,7.276-21.805,15.712-24.096c1.238-0.336,2.39-0.499,3.52-0.499c2.397,0,4.437,0.764,6.597,1.574   c2.905,1.086,6.197,2.318,11.436,2.318c5.23,0,8.524-1.232,11.437-2.322c2.153-0.806,4.188-1.568,6.6-1.568   c1.132,0,2.281,0.163,3.514,0.497c8.427,2.29,12.26,10.918,15.713,24.096C90.495,74.692,89.923,85.399,85.414,87.363z"
         id="path1"
         style="fill:#883caf;fill-opacity:1" />
      <path
         d="M24.087,56.632h5.855v5.928c0,0.859,0.757,1.585,1.653,1.585s1.653-0.726,1.653-1.585v-5.928h6   c0.858,0,1.584-0.757,1.584-1.653s-0.726-1.653-1.584-1.653h-6v-5.928c0-0.859-0.757-1.585-1.653-1.585s-1.653,0.726-1.653,1.585   v5.928h-5.855c-0.859,0-1.584,0.757-1.584,1.653S23.229,56.632,24.087,56.632z"
         id="path2"
         style="fill:#883caf;fill-opacity:1" />
      <path
         d="M68.865,45.813c-1.481,0-2.687,1.205-2.687,2.687s1.205,2.687,2.687,2.687c1.48,0,2.686-1.205,2.686-2.687   S70.346,45.813,68.865,45.813z"
         id="path3"
         style="fill:#883caf;fill-opacity:1" />
      <path
         d="M68.865,59.038c-1.481,0-2.687,1.205-2.687,2.687s1.205,2.687,2.687,2.687c1.48,0,2.686-1.205,2.686-2.687   S70.346,59.038,68.865,59.038z"
         id="path4"
         style="fill:#883caf;fill-opacity:1" />
      <path
         d="M62.252,52.426c-1.48,0-2.686,1.205-2.686,2.686c0,1.481,1.205,2.688,2.686,2.688c1.481,0,2.687-1.206,2.687-2.688   C64.938,53.631,63.733,52.426,62.252,52.426z"
         id="path5"
         style="fill:#883caf;fill-opacity:1" />
      <path
         d="M75.478,52.426c-1.481,0-2.687,1.205-2.687,2.686c0,1.481,1.205,2.688,2.687,2.688c1.482,0,2.688-1.206,2.688-2.688   C78.165,53.631,76.96,52.426,75.478,52.426z"
         id="path6"
         style="fill:#883caf;fill-opacity:1" />
    </g>
  </g>
  <g
     id="g14"
     featurekey="nameFeature-0"
     transform="matrix(0.57753169,0,0,0.57753169,69.865874,37.573327)"
     fill="#f7fbfc"
     style="fill:#e800f6;fill-opacity:1;stroke:none;stroke-width:5.02653;stroke-dasharray:none;stroke-opacity:1;filter:url(#filter17)">
    <path
       d="m 23.447041,-28.489029 c -0.67711,-1.4584 -1.6147,-2.7605 -2.8126,-3.9063 -1.25,-1.0938 -2.7344,-1.9531 -4.4531,-2.5781 -1.875,-0.57289 -3.8541,-0.85938 -5.9375,-0.85938 h -14.609 v 5.8594 h 14.063 c 2.3438,0 4.2969,0.57289 5.8594,1.7188 1.4584,1.0938 2.1875,2.7604 2.1875,5 0,2.0313 -0.70313,3.6719 -2.1094,4.9219 -1.5104,1.1979 -3.4895,1.7969 -5.9374,1.7969 h -14.063 v 17.891 h 6.4844 v -11.953 h 7.3438 c 1.9271,0 3.8802,-0.28648 5.8594,-0.85938 1.8229,-0.57289 3.3854,-1.3802 4.6875,-2.4218 1.3541,-1.0416 2.4219,-2.3698 3.2031,-3.9844 0.78125,-1.5625 1.1719,-3.3854 1.1719,-5.4688 0,-1.9791 -0.3125,-3.6979 -0.9375,-5.1563 z m 29.843,8.125 v -15.547 h -6.5625 v 37.344 h 6.5625 z m 33.203,12.5 3.5156,-4.6875 -0.07813,-0.15625 z m 20.390999,-27.969 h -7.499999 l -9.2969,13.359 -9.2188,-13.359 h -7.7344 l 13.047,18.281 -13.516,18.906 h 8.3594 z m 0.469,37.1877 -10.312999,-14.609 -3.9063,5.2344 6.5625,9.375 h 7.656299 z m 8.7498,-37.1877 h 27.813 v 5.9375 h -27.813 z m 0,31.2502 h 27.734 v 5.9375 h -27.734 z m 0,-15.7812 h 25.078 v 5.8594 h -25.078 z m 40.9375,-15.469 h 6.4063 v 31.25 h 19.531 v 5.9375 h -25.938 v -37.188 z m 64.9217,37.1877 h 6.5625 v -27.422 l -6.5625,9.6094 v 17.813 z m 6.563,-37.1877 h -7.0313 l -11.484,17.813 -11.406,-17.813 h -7.0313 v 37.188 h 6.5625 v -26.406 l 11.719,17.578 h 0.23438 l 10.234,-15.156 c 0.0521,-0.20836 2.7865,-4.6094 8.2031,-13.203 z m 7.5778,0 h 27.813 v 5.9375 h -27.813 z m 0,31.2502 h 27.734 v 5.9375 h -27.734 z m 0,-15.7812 h 25.078 v 5.8594 h -25.078 z m 50.3902,12.5 3.5156,-4.6875 -0.0781,-0.15625 z m 20.391,-27.969 h -7.5 l -9.2969,13.359 -9.2188,-13.359 h -7.7344 l 13.047,18.281 -13.516,18.906 h 8.3594 z m 0.469,37.1877 -10.313,-14.609 -3.9063,5.2344 6.5625,9.375 h 7.6563 z m 27.578,-37.1877 c -2.8646,0 -5.5209,0.4686 -7.9688,1.4061 -2.3959,0.9375 -4.4792,2.2396 -6.2501,3.9063 -1.7188,1.5625 -3.0729,3.5416 -4.0625,5.9375 -0.83336,2.0313 -1.3021,4.2448 -1.4063,6.6406 v 2.3438 h 6.875 v -2.3438 c 0.10414,-1.7709 0.39063,-3.2031 0.85938,-4.2969 0.625,-1.5104 1.4844,-2.8645 2.5781,-4.0624 1.3021,-1.1979 2.6563,-2.0833 4.0625,-2.6562 1.6146,-0.625 3.3855,-0.9375 5.3126,-0.9375 h 9.8438 v -5.9375 h -9.8438 z m 2.969,17.578 8e-5,1.4843 h 0.0781 c -0.10414,1.6666 -0.41664,3.2031 -0.9375,4.6094 -0.67711,1.6146 -1.5365,2.9427 -2.5781,3.9844 -1.1459,1.1459 -2.5,2.0313 -4.0625,2.6563 -1.6146,0.625 -3.3855,0.9375 -5.3126,0.9375 h -9.8438 v 5.9375 h 9.8438 c 2.8646,0 5.5209,-0.46874998 7.9688,-1.40629998 2.3959,-0.9375 4.4792,-2.23960002 6.2501,-3.90630002 1.8229,-1.8229 3.177,-3.802 4.0624,-5.9374 0.9375,-2.0834 1.4063,-4.375 1.4063,-6.875 v -1.4844 h -6.875 z m 35.39,-11.484 h 11.797 v -6.0938 h -30.156 v 6.0938 z m -6.562,6.094 h 6.5625 v 25 h -6.5625 z m 40.625,19.0622 c -0.78125,-0.15625 -1.5105,-0.3907 -2.1876,-0.7032 -1.4584,-0.67711 -2.7344,-1.6146 -3.8281,-2.8125 -1.0416,-1.0938 -1.875,-2.4479 -2.5,-4.0625 -0.57289,-1.6146 -0.85938,-3.2552 -0.85938,-4.9219 v -0.15625 -0.23438 c 0,-1.7188 0.28648,-3.3854 0.85938,-5 0.67711,-1.6666 1.5105,-2.9948 2.5001,-3.9844 1.0416,-1.1979 2.2916,-2.1094 3.75,-2.7344 0.88539,-0.41664 1.6406,-0.67703 2.2656,-0.78117 v -5.8594 c -1.8229,0.26039 -3.4375,0.70313 -4.8438,1.3281 -2.2916,0.98961 -4.2448,2.3177 -5.8594,3.9844 -1.6146,1.6667 -2.8906,3.6458 -3.8281,5.9374 -0.9375,2.2916 -1.4063,4.6875 -1.4063,7.1875 v 0.15625 0.23438 c 0,2.5521 0.46875,4.948 1.4063,7.1876 0.83336,2.2396 2.0834,4.1927 3.75,5.8594 1.6666,1.7188 3.6198,3.04690002 5.8594,3.98440002 1.4063,0.625 3.0469,1.06769998 4.9219,1.32809998 v -5.9375 z m 21.25,-12.6562 8e-5,-0.23438 c 0,-2.5521 -0.46875,-4.948 -1.4063,-7.1876 -0.9375,-2.2916 -2.2135,-4.2708 -3.8281,-5.9374 -1.5625,-1.6666 -3.4896,-2.9688 -5.7813,-3.9063 -1.3021,-0.625 -2.8906,-1.0677 -4.7656,-1.3281 v 5.9375 l 0.9375,0.3125 c 0.46875,0.15625 0.83336,0.28648 1.0938,0.39063 1.4584,0.67711 2.7344,1.6146 3.8281,2.8125 1.0416,1.0938 1.875,2.4479 2.5,4.0625 0.57289,1.6146 0.85938,3.2552 0.85938,4.9219 v 0.15625 0.23438 c 0,1.7188 -0.28648,3.3854 -0.85938,5 -0.67711,1.6666 -1.5105,2.9948 -2.5001,3.9844 -1.0416,1.1979 -2.2916,2.1094 -3.75,2.7344 -0.67711,0.3125 -1.3802,0.54688 -2.1094,0.70313 v 5.9375 c 1.5625,-0.20836 3.125,-0.65108998 4.6875,-1.32819998 2.1354,-0.88539 4.0885,-2.21350002 5.8594,-3.98440002 1.7188,-1.8229 2.9948,-3.802 3.8281,-5.9374 0.9375,-2.2916 1.4063,-4.6875 1.4063,-7.1875 v -0.15625 z m 37.187,18.5937 -10.078,-14.063 c 1.3541,-0.41664 2.552,-0.91141 3.5937,-1.4843 1.1459,-0.72914 2.0834,-1.5364 2.8125,-2.4218 0.83336,-0.98961 1.4323,-2.0573 1.797,-3.2032 0.46875,-1.25 0.70313,-2.6563 0.70313,-4.2188 0,-1.8229 -0.3125,-3.4635 -0.9375,-4.9219 -0.625,-1.4063 -1.5365,-2.6302 -2.7344,-3.6719 -1.1459,-0.98961 -2.6042,-1.7709 -4.3751,-2.3438 -1.8229,-0.57289 -3.75,-0.85938 -5.7813,-0.85938 h -16.563 v 5.9375 h 16.016 c 2.4479,0 4.3489,0.52086 5.703,1.5625 1.3541,1.04164 2.0313,2.6041 2.0313,4.6875 0,1.9271 -0.67711,3.4375 -2.0313,4.5313 -1.3541,1.1459 -3.2291,1.7188 -5.625,1.7188 h -16.094 v 18.75 h 6.4844 v -12.969 h 8.2031 l 9.1406,12.969 h 7.7344 v 0 z m 10.3128,-37.1877 h 27.813 v 5.9375 h -27.813 z m 0,31.2502 h 27.734 v 5.9375 h -27.734 z m 0,-15.7812 h 25.078 v 5.8594 h -25.078 z"
       id="path14"
       style="fill:#e800f6;fill-opacity:1;stroke:none;stroke-width:5.02653;stroke-dasharray:none;stroke-opacity:1;filter:url(#filter14)" />
  </g>
  <g
     id="g17"
     featurekey="nameFeature-0"
     transform="matrix(0.57753169,0,0,0.57753169,69.865874,37.573327)"
     fill="#f7fbfc"
     style="fill:#f87fff;fill-opacity:1;stroke:none;stroke-width:5.02653;stroke-dasharray:none;stroke-opacity:1;filter:url(#filter17)">
    <path
       d="m 23.447041,-28.489029 c -0.67711,-1.4584 -1.6147,-2.7605 -2.8126,-3.9063 -1.25,-1.0938 -2.7344,-1.9531 -4.4531,-2.5781 -1.875,-0.57289 -3.8541,-0.85938 -5.9375,-0.85938 h -14.609 v 5.8594 h 14.063 c 2.3438,0 4.2969,0.57289 5.8594,1.7188 1.4584,1.0938 2.1875,2.7604 2.1875,5 0,2.0313 -0.70313,3.6719 -2.1094,4.9219 -1.5104,1.1979 -3.4895,1.7969 -5.9374,1.7969 h -14.063 v 17.891 h 6.4844 v -11.953 h 7.3438 c 1.9271,0 3.8802,-0.28648 5.8594,-0.85938 1.8229,-0.57289 3.3854,-1.3802 4.6875,-2.4218 1.3541,-1.0416 2.4219,-2.3698 3.2031,-3.9844 0.78125,-1.5625 1.1719,-3.3854 1.1719,-5.4688 0,-1.9791 -0.3125,-3.6979 -0.9375,-5.1563 z m 29.843,8.125 v -15.547 h -6.5625 v 37.344 h 6.5625 z m 33.203,12.5 3.5156,-4.6875 -0.07813,-0.15625 z m 20.390999,-27.969 h -7.499999 l -9.2969,13.359 -9.2188,-13.359 h -7.7344 l 13.047,18.281 -13.516,18.906 h 8.3594 z m 0.469,37.1877 -10.312999,-14.609 -3.9063,5.2344 6.5625,9.375 h 7.656299 z m 8.7498,-37.1877 h 27.813 v 5.9375 h -27.813 z m 0,31.2502 h 27.734 v 5.9375 h -27.734 z m 0,-15.7812 h 25.078 v 5.8594 h -25.078 z m 40.9375,-15.469 h 6.4063 v 31.25 h 19.531 v 5.9375 h -25.938 v -37.188 z m 64.9217,37.1877 h 6.5625 v -27.422 l -6.5625,9.6094 v 17.813 z m 6.563,-37.1877 h -7.0313 l -11.484,17.813 -11.406,-17.813 h -7.0313 v 37.188 h 6.5625 v -26.406 l 11.719,17.578 h 0.23438 l 10.234,-15.156 c 0.0521,-0.20836 2.7865,-4.6094 8.2031,-13.203 z m 7.5778,0 h 27.813 v 5.9375 h -27.813 z m 0,31.2502 h 27.734 v 5.9375 h -27.734 z m 0,-15.7812 h 25.078 v 5.8594 h -25.078 z m 50.3902,12.5 3.5156,-4.6875 -0.0781,-0.15625 z m 20.391,-27.969 h -7.5 l -9.2969,13.359 -9.2188,-13.359 h -7.7344 l 13.047,18.281 -13.516,18.906 h 8.3594 z m 0.469,37.1877 -10.313,-14.609 -3.9063,5.2344 6.5625,9.375 h 7.6563 z m 27.578,-37.1877 c -2.8646,0 -5.5209,0.4686 -7.9688,1.4061 -2.3959,0.9375 -4.4792,2.2396 -6.2501,3.9063 -1.7188,1.5625 -3.0729,3.5416 -4.0625,5.9375 -0.83336,2.0313 -1.3021,4.2448 -1.4063,6.6406 v 2.3438 h 6.875 v -2.3438 c 0.10414,-1.7709 0.39063,-3.2031 0.85938,-4.2969 0.625,-1.5104 1.4844,-2.8645 2.5781,-4.0624 1.3021,-1.1979 2.6563,-2.0833 4.0625,-2.6562 1.6146,-0.625 3.3855,-0.9375 5.3126,-0.9375 h 9.8438 v -5.9375 h -9.8438 z m 2.969,17.578 8e-5,1.4843 h 0.0781 c -0.10414,1.6666 -0.41664,3.2031 -0.9375,4.6094 -0.67711,1.6146 -1.5365,2.9427 -2.5781,3.9844 -1.1459,1.1459 -2.5,2.0313 -4.0625,2.6563 -1.6146,0.625 -3.3855,0.9375 -5.3126,0.9375 h -9.8438 v 5.9375 h 9.8438 c 2.8646,0 5.5209,-0.46874998 7.9688,-1.40629998 2.3959,-0.9375 4.4792,-2.23960002 6.2501,-3.90630002 1.8229,-1.8229 3.177,-3.802 4.0624,-5.9374 0.9375,-2.0834 1.4063,-4.375 1.4063,-6.875 v -1.4844 h -6.875 z m 35.39,-11.484 h 11.797 v -6.0938 h -30.156 v 6.0938 z m -6.562,6.094 h 6.5625 v 25 h -6.5625 z m 40.625,19.0622 c -0.78125,-0.15625 -1.5105,-0.3907 -2.1876,-0.7032 -1.4584,-0.67711 -2.7344,-1.6146 -3.8281,-2.8125 -1.0416,-1.0938 -1.875,-2.4479 -2.5,-4.0625 -0.57289,-1.6146 -0.85938,-3.2552 -0.85938,-4.9219 v -0.15625 -0.23438 c 0,-1.7188 0.28648,-3.3854 0.85938,-5 0.67711,-1.6666 1.5105,-2.9948 2.5001,-3.9844 1.0416,-1.1979 2.2916,-2.1094 3.75,-2.7344 0.88539,-0.41664 1.6406,-0.67703 2.2656,-0.78117 v -5.8594 c -1.8229,0.26039 -3.4375,0.70313 -4.8438,1.3281 -2.2916,0.98961 -4.2448,2.3177 -5.8594,3.9844 -1.6146,1.6667 -2.8906,3.6458 -3.8281,5.9374 -0.9375,2.2916 -1.4063,4.6875 -1.4063,7.1875 v 0.15625 0.23438 c 0,2.5521 0.46875,4.948 1.4063,7.1876 0.83336,2.2396 2.0834,4.1927 3.75,5.8594 1.6666,1.7188 3.6198,3.04690002 5.8594,3.98440002 1.4063,0.625 3.0469,1.06769998 4.9219,1.32809998 v -5.9375 z m 21.25,-12.6562 8e-5,-0.23438 c 0,-2.5521 -0.46875,-4.948 -1.4063,-7.1876 -0.9375,-2.2916 -2.2135,-4.2708 -3.8281,-5.9374 -1.5625,-1.6666 -3.4896,-2.9688 -5.7813,-3.9063 -1.3021,-0.625 -2.8906,-1.0677 -4.7656,-1.3281 v 5.9375 l 0.9375,0.3125 c 0.46875,0.15625 0.83336,0.28648 1.0938,0.39063 1.4584,0.67711 2.7344,1.6146 3.8281,2.8125 1.0416,1.0938 1.875,2.4479 2.5,4.0625 0.57289,1.6146 0.85938,3.2552 0.85938,4.9219 v 0.15625 0.23438 c 0,1.7188 -0.28648,3.3854 -0.85938,5 -0.67711,1.6666 -1.5105,2.9948 -2.5001,3.9844 -1.0416,1.1979 -2.2916,2.1094 -3.75,2.7344 -0.67711,0.3125 -1.3802,0.54688 -2.1094,0.70313 v 5.9375 c 1.5625,-0.20836 3.125,-0.65108998 4.6875,-1.32819998 2.1354,-0.88539 4.0885,-2.21350002 5.8594,-3.98440002 1.7188,-1.8229 2.9948,-3.802 3.8281,-5.9374 0.9375,-2.2916 1.4063,-4.6875 1.4063,-7.1875 v -0.15625 z m 37.187,18.5937 -10.078,-14.063 c 1.3541,-0.41664 2.552,-0.91141 3.5937,-1.4843 1.1459,-0.72914 2.0834,-1.5364 2.8125,-2.4218 0.83336,-0.98961 1.4323,-2.0573 1.797,-3.2032 0.46875,-1.25 0.70313,-2.6563 0.70313,-4.2188 0,-1.8229 -0.3125,-3.4635 -0.9375,-4.9219 -0.625,-1.4063 -1.5365,-2.6302 -2.7344,-3.6719 -1.1459,-0.98961 -2.6042,-1.7709 -4.3751,-2.3438 -1.8229,-0.57289 -3.75,-0.85938 -5.7813,-0.85938 h -16.563 v 5.9375 h 16.016 c 2.4479,0 4.3489,0.52086 5.703,1.5625 1.3541,1.04164 2.0313,2.6041 2.0313,4.6875 0,1.9271 -0.67711,3.4375 -2.0313,4.5313 -1.3541,1.1459 -3.2291,1.7188 -5.625,1.7188 h -16.094 v 18.75 h 6.4844 v -12.969 h 8.2031 l 9.1406,12.969 h 7.7344 v 0 z m 10.3128,-37.1877 h 27.813 v 5.9375 h -27.813 z m 0,31.2502 h 27.734 v 5.9375 h -27.734 z m 0,-15.7812 h 25.078 v 5.8594 h -25.078 z"
       id="path17"
       style="fill:#f87fff;fill-opacity:1;stroke:none;stroke-width:5.02653;stroke-dasharray:none;stroke-opacity:1;filter:url(#filter14)" />
  </g>
  <g
     id="g18"
     featurekey="nameFeature-0"
     transform="matrix(0.57753169,0,0,0.57753169,69.865874,37.573327)"
     fill="#f7fbfc"
     style="fill:#f777ff;fill-opacity:1;stroke:none;stroke-width:5.02653;stroke-dasharray:none;stroke-opacity:1;filter:url(#filter18)">
    <path
       d="m 23.447041,-28.489029 c -0.67711,-1.4584 -1.6147,-2.7605 -2.8126,-3.9063 -1.25,-1.0938 -2.7344,-1.9531 -4.4531,-2.5781 -1.875,-0.57289 -3.8541,-0.85938 -5.9375,-0.85938 h -14.609 v 5.8594 h 14.063 c 2.3438,0 4.2969,0.57289 5.8594,1.7188 1.4584,1.0938 2.1875,2.7604 2.1875,5 0,2.0313 -0.70313,3.6719 -2.1094,4.9219 -1.5104,1.1979 -3.4895,1.7969 -5.9374,1.7969 h -14.063 v 17.891 h 6.4844 v -11.953 h 7.3438 c 1.9271,0 3.8802,-0.28648 5.8594,-0.85938 1.8229,-0.57289 3.3854,-1.3802 4.6875,-2.4218 1.3541,-1.0416 2.4219,-2.3698 3.2031,-3.9844 0.78125,-1.5625 1.1719,-3.3854 1.1719,-5.4688 0,-1.9791 -0.3125,-3.6979 -0.9375,-5.1563 z m 29.843,8.125 v -15.547 h -6.5625 v 37.344 h 6.5625 z m 33.203,12.5 3.5156,-4.6875 -0.07813,-0.15625 z m 20.390999,-27.969 h -7.499999 l -9.2969,13.359 -9.2188,-13.359 h -7.7344 l 13.047,18.281 -13.516,18.906 h 8.3594 z m 0.469,37.1877 -10.312999,-14.609 -3.9063,5.2344 6.5625,9.375 h 7.656299 z m 8.7498,-37.1877 h 27.813 v 5.9375 h -27.813 z m 0,31.2502 h 27.734 v 5.9375 h -27.734 z m 0,-15.7812 h 25.078 v 5.8594 h -25.078 z m 40.9375,-15.469 h 6.4063 v 31.25 h 19.531 v 5.9375 h -25.938 v -37.188 z m 64.9217,37.1877 h 6.5625 v -27.422 l -6.5625,9.6094 v 17.813 z m 6.563,-37.1877 h -7.0313 l -11.484,17.813 -11.406,-17.813 h -7.0313 v 37.188 h 6.5625 v -26.406 l 11.719,17.578 h 0.23438 l 10.234,-15.156 c 0.0521,-0.20836 2.7865,-4.6094 8.2031,-13.203 z m 7.5778,0 h 27.813 v 5.9375 h -27.813 z m 0,31.2502 h 27.734 v 5.9375 h -27.734 z m 0,-15.7812 h 25.078 v 5.8594 h -25.078 z m 50.3902,12.5 3.5156,-4.6875 -0.0781,-0.15625 z m 20.391,-27.969 h -7.5 l -9.2969,13.359 -9.2188,-13.359 h -7.7344 l 13.047,18.281 -13.516,18.906 h 8.3594 z m 0.469,37.1877 -10.313,-14.609 -3.9063,5.2344 6.5625,9.375 h 7.6563 z m 27.578,-37.1877 c -2.8646,0 -5.5209,0.4686 -7.9688,1.4061 -2.3959,0.9375 -4.4792,2.2396 -6.2501,3.9063 -1.7188,1.5625 -3.0729,3.5416 -4.0625,5.9375 -0.83336,2.0313 -1.3021,4.2448 -1.4063,6.6406 v 2.3438 h 6.875 v -2.3438 c 0.10414,-1.7709 0.39063,-3.2031 0.85938,-4.2969 0.625,-1.5104 1.4844,-2.8645 2.5781,-4.0624 1.3021,-1.1979 2.6563,-2.0833 4.0625,-2.6562 1.6146,-0.625 3.3855,-0.9375 5.3126,-0.9375 h 9.8438 v -5.9375 h -9.8438 z m 2.969,17.578 8e-5,1.4843 h 0.0781 c -0.10414,1.6666 -0.41664,3.2031 -0.9375,4.6094 -0.67711,1.6146 -1.5365,2.9427 -2.5781,3.9844 -1.1459,1.1459 -2.5,2.0313 -4.0625,2.6563 -1.6146,0.625 -3.3855,0.9375 -5.3126,0.9375 h -9.8438 v 5.9375 h 9.8438 c 2.8646,0 5.5209,-0.46874998 7.9688,-1.40629998 2.3959,-0.9375 4.4792,-2.23960002 6.2501,-3.90630002 1.8229,-1.8229 3.177,-3.802 4.0624,-5.9374 0.9375,-2.0834 1.4063,-4.375 1.4063,-6.875 v -1.4844 h -6.875 z m 35.39,-11.484 h 11.797 v -6.0938 h -30.156 v 6.0938 z m -6.562,6.094 h 6.5625 v 25 h -6.5625 z m 40.625,19.0622 c -0.78125,-0.15625 -1.5105,-0.3907 -2.1876,-0.7032 -1.4584,-0.67711 -2.7344,-1.6146 -3.8281,-2.8125 -1.0416,-1.0938 -1.875,-2.4479 -2.5,-4.0625 -0.57289,-1.6146 -0.85938,-3.2552 -0.85938,-4.9219 v -0.15625 -0.23438 c 0,-1.7188 0.28648,-3.3854 0.85938,-5 0.67711,-1.6666 1.5105,-2.9948 2.5001,-3.9844 1.0416,-1.1979 2.2916,-2.1094 3.75,-2.7344 0.88539,-0.41664 1.6406,-0.67703 2.2656,-0.78117 v -5.8594 c -1.8229,0.26039 -3.4375,0.70313 -4.8438,1.3281 -2.2916,0.98961 -4.2448,2.3177 -5.8594,3.9844 -1.6146,1.6667 -2.8906,3.6458 -3.8281,5.9374 -0.9375,2.2916 -1.4063,4.6875 -1.4063,7.1875 v 0.15625 0.23438 c 0,2.5521 0.46875,4.948 1.4063,7.1876 0.83336,2.2396 2.0834,4.1927 3.75,5.8594 1.6666,1.7188 3.6198,3.04690002 5.8594,3.98440002 1.4063,0.625 3.0469,1.06769998 4.9219,1.32809998 v -5.9375 z m 21.25,-12.6562 8e-5,-0.23438 c 0,-2.5521 -0.46875,-4.948 -1.4063,-7.1876 -0.9375,-2.2916 -2.2135,-4.2708 -3.8281,-5.9374 -1.5625,-1.6666 -3.4896,-2.9688 -5.7813,-3.9063 -1.3021,-0.625 -2.8906,-1.0677 -4.7656,-1.3281 v 5.9375 l 0.9375,0.3125 c 0.46875,0.15625 0.83336,0.28648 1.0938,0.39063 1.4584,0.67711 2.7344,1.6146 3.8281,2.8125 1.0416,1.0938 1.875,2.4479 2.5,4.0625 0.57289,1.6146 0.85938,3.2552 0.85938,4.9219 v 0.15625 0.23438 c 0,1.7188 -0.28648,3.3854 -0.85938,5 -0.67711,1.6666 -1.5105,2.9948 -2.5001,3.9844 -1.0416,1.1979 -2.2916,2.1094 -3.75,2.7344 -0.67711,0.3125 -1.3802,0.54688 -2.1094,0.70313 v 5.9375 c 1.5625,-0.20836 3.125,-0.65108998 4.6875,-1.32819998 2.1354,-0.88539 4.0885,-2.21350002 5.8594,-3.98440002 1.7188,-1.8229 2.9948,-3.802 3.8281,-5.9374 0.9375,-2.2916 1.4063,-4.6875 1.4063,-7.1875 v -0.15625 z m 37.187,18.5937 -10.078,-14.063 c 1.3541,-0.41664 2.552,-0.91141 3.5937,-1.4843 1.1459,-0.72914 2.0834,-1.5364 2.8125,-2.4218 0.83336,-0.98961 1.4323,-2.0573 1.797,-3.2032 0.46875,-1.25 0.70313,-2.6563 0.70313,-4.2188 0,-1.8229 -0.3125,-3.4635 -0.9375,-4.9219 -0.625,-1.4063 -1.5365,-2.6302 -2.7344,-3.6719 -1.1459,-0.98961 -2.6042,-1.7709 -4.3751,-2.3438 -1.8229,-0.57289 -3.75,-0.85938 -5.7813,-0.85938 h -16.563 v 5.9375 h 16.016 c 2.4479,0 4.3489,0.52086 5.703,1.5625 1.3541,1.04164 2.0313,2.6041 2.0313,4.6875 0,1.9271 -0.67711,3.4375 -2.0313,4.5313 -1.3541,1.1459 -3.2291,1.7188 -5.625,1.7188 h -16.094 v 18.75 h 6.4844 v -12.969 h 8.2031 l 9.1406,12.969 h 7.7344 v 0 z m 10.3128,-37.1877 h 27.813 v 5.9375 h -27.813 z m 0,31.2502 h 27.734 v 5.9375 h -27.734 z m 0,-15.7812 h 25.078 v 5.8594 h -25.078 z"
       id="path18"
       style="fill:#f777ff;fill-opacity:1;stroke:none;stroke-width:5.02653;stroke-dasharray:none;stroke-opacity:1;filter:url(#filter14)" />
  </g>
  <g
     id="SvgjsG3359"
     featurekey="nameFeature-0"
     transform="matrix(0.57753169,0,0,0.57753169,64.095797,16.066607)"
     fill="#f7fbfc"
     style="fill:#6b0071;fill-opacity:1;stroke:none;stroke-width:2.9831;stroke-dasharray:none;stroke-opacity:1;paint-order:markers stroke fill">
    <path
       d="M 33.438,8.75 C 32.76089,7.2916 31.8233,5.9895 30.6254,4.8437 29.3754,3.7499 27.891,2.8906 26.1723,2.2656 24.2973,1.69271 22.3182,1.40622 20.2348,1.40622 H 5.6258 v 5.8594 h 14.063 c 2.3438,0 4.2969,0.57289 5.8594,1.7188 1.4584,1.0938 2.1875,2.7604 2.1875,5 0,2.0313 -0.70313,3.6719 -2.1094,4.9219 -1.5104,1.1979 -3.4895,1.7969 -5.9374,1.7969 H 5.6259 v 17.891 h 6.4844 v -11.953 h 7.3438 c 1.9271,0 3.8802,-0.28648 5.8594,-0.85938 1.8229,-0.57289 3.3854,-1.3802 4.6875,-2.4218 1.3541,-1.0416 2.4219,-2.3698 3.2031,-3.9844 0.78125,-1.5625 1.1719,-3.3854 1.1719,-5.4688 0,-1.9791 -0.3125,-3.6979 -0.9375,-5.1563 z m 29.843,8.125 V 1.328 h -6.5625 v 37.344 h 6.5625 z m 33.203,12.5 3.5156,-4.6875 -0.07813,-0.15625 z M 116.875,1.406 h -7.5 L 100.0781,14.765 90.8593,1.406 h -7.7344 l 13.047,18.281 -13.516,18.906 h 8.3594 z m 0.469,37.1877 -10.313,-14.609 -3.9063,5.2344 6.5625,9.375 h 7.6563 z M 126.0938,1.406 h 27.813 v 5.9375 h -27.813 z m 0,31.2502 h 27.734 v 5.9375 h -27.734 z m 0,-15.7812 h 25.078 v 5.8594 h -25.078 z M 167.0313,1.406 h 6.4063 v 31.25 h 19.531 v 5.9375 h -25.938 V 1.4055 Z m 64.9217,37.1877 h 6.5625 v -27.422 l -6.5625,9.6094 v 17.813 z M 238.516,1.406 h -7.0313 l -11.484,17.813 -11.406,-17.813 h -7.0313 v 37.188 h 6.5625 V 12.188 l 11.719,17.578 h 0.23438 l 10.234,-15.156 c 0.0521,-0.20836 2.7865,-4.6094 8.2031,-13.203 z m 7.5778,0 h 27.813 v 5.9375 h -27.813 z m 0,31.2502 h 27.734 v 5.9375 h -27.734 z m 0,-15.7812 h 25.078 v 5.8594 h -25.078 z m 50.3902,12.5 3.5156,-4.6875 -0.0781,-0.15625 z M 316.875,1.406 h -7.5 l -9.2969,13.359 -9.2188,-13.359 h -7.7344 l 13.047,18.281 -13.516,18.906 h 8.3594 z m 0.469,37.1877 -10.313,-14.609 -3.9063,5.2344 6.5625,9.375 h 7.6563 z M 344.922,1.406 c -2.8646,0 -5.5209,0.4686 -7.9688,1.4061 -2.3959,0.9375 -4.4792,2.2396 -6.2501,3.9063 -1.7188,1.5625 -3.0729,3.5416 -4.0625,5.9375 -0.83336,2.0313 -1.3021,4.2448 -1.4063,6.6406 v 2.3438 h 6.875 v -2.3438 c 0.10414,-1.7709 0.39063,-3.2031 0.85938,-4.2969 0.625,-1.5104 1.4844,-2.8645 2.5781,-4.0624 1.3021,-1.1979 2.6563,-2.0833 4.0625,-2.6562 1.6146,-0.625 3.3855,-0.9375 5.3126,-0.9375 h 9.8438 V 1.406 h -9.8438 z m 2.969,17.578 8e-5,1.4843 h 0.0781 c -0.10414,1.6666 -0.41664,3.2031 -0.9375,4.6094 -0.67711,1.6146 -1.5365,2.9427 -2.5781,3.9844 -1.1459,1.1459 -2.5,2.0313 -4.0625,2.6563 -1.6146,0.625 -3.3855,0.9375 -5.3126,0.9375 h -9.8438 v 5.9375 h 9.8438 c 2.8646,0 5.5209,-0.46875 7.9688,-1.4063 2.3959,-0.9375 4.4792,-2.2396 6.2501,-3.9063 1.8229,-1.8229 3.177,-3.802 4.0624,-5.9374 0.9375,-2.0834 1.4063,-4.375 1.4063,-6.875 V 18.984 h -6.875 z M 383.281,7.5 h 11.797 V 1.4062 H 364.922 V 7.5 Z m -6.562,6.094 h 6.5625 v 25 h -6.5625 z m 40.625,19.0622 c -0.78125,-0.15625 -1.5105,-0.3907 -2.1876,-0.7032 -1.4584,-0.67711 -2.7344,-1.6146 -3.8281,-2.8125 -1.0416,-1.0938 -1.875,-2.4479 -2.5,-4.0625 -0.57289,-1.6146 -0.85938,-3.2552 -0.85938,-4.9219 v -0.15625 -0.23438 c 0,-1.7188 0.28648,-3.3854 0.85938,-5 0.67711,-1.6666 1.5105,-2.9948 2.5001,-3.9844 1.0416,-1.1979 2.2916,-2.1094 3.75,-2.7344 0.88539,-0.41664 1.6406,-0.67703 2.2656,-0.78117 V 1.4061 c -1.8229,0.26039 -3.4375,0.70313 -4.8438,1.3281 -2.2916,0.98961 -4.2448,2.3177 -5.8594,3.9844 -1.6146,1.6667 -2.8906,3.6458 -3.8281,5.9374 -0.9375,2.2916 -1.4063,4.6875 -1.4063,7.1875 v 0.15625 0.23438 c 0,2.5521 0.46875,4.948 1.4063,7.1876 0.83336,2.2396 2.0834,4.1927 3.75,5.8594 1.6666,1.7188 3.6198,3.0469 5.8594,3.9844 1.4063,0.625 3.0469,1.0677 4.9219,1.3281 v -5.9375 z M 438.594,20 l 8e-5,-0.23438 c 0,-2.5521 -0.46875,-4.948 -1.4063,-7.1876 -0.9375,-2.2916 -2.2135,-4.2708 -3.8281,-5.9374 -1.5625,-1.6666 -3.4896,-2.9688 -5.7813,-3.9063 -1.3021,-0.625 -2.8906,-1.0677 -4.7656,-1.3281 v 5.9375 l 0.9375,0.3125 c 0.46875,0.15625 0.83336,0.28648 1.0938,0.39063 1.4584,0.67711 2.7344,1.6146 3.8281,2.8125 1.0416,1.0938 1.875,2.4479 2.5,4.0625 0.57289,1.6146 0.85938,3.2552 0.85938,4.9219 V 20 20.23438 c 0,1.7188 -0.28648,3.3854 -0.85938,5 -0.67711,1.6666 -1.5105,2.9948 -2.5001,3.9844 -1.0416,1.1979 -2.2916,2.1094 -3.75,2.7344 -0.67711,0.3125 -1.3802,0.54688 -2.1094,0.70313 v 5.9375 c 1.5625,-0.20836 3.125,-0.65109 4.6875,-1.3282 2.1354,-0.88539 4.0885,-2.2135 5.8594,-3.9844 1.7188,-1.8229 2.9948,-3.802 3.8281,-5.9374 0.9375,-2.2916 1.4063,-4.6875 1.4063,-7.1875 v -0.15625 z m 37.187,18.5937 -10.078,-14.063 c 1.3541,-0.41664 2.552,-0.91141 3.5937,-1.4843 1.1459,-0.72914 2.0834,-1.5364 2.8125,-2.4218 0.83336,-0.98961 1.4323,-2.0573 1.797,-3.2032 0.46875,-1.25 0.70313,-2.6563 0.70313,-4.2188 0,-1.8229 -0.3125,-3.4635 -0.9375,-4.9219 -0.625,-1.4063 -1.5365,-2.6302 -2.7344,-3.6719 -1.1459,-0.98961 -2.6042,-1.7709 -4.3751,-2.3438 -1.8229,-0.57289 -3.75,-0.85938 -5.7813,-0.85938 h -16.563 v 5.9375 h 16.016 c 2.4479,0 4.3489,0.52086 5.703,1.5625 1.3541,1.04164 2.0313,2.6041 2.0313,4.6875 0,1.9271 -0.67711,3.4375 -2.0313,4.5313 -1.3541,1.1459 -3.2291,1.7188 -5.625,1.7188 h -16.094 v 18.75 h 6.4844 v -12.969 h 8.2031 l 9.1406,12.969 h 7.7344 v 0 z M 486.0938,1.406 h 27.813 v 5.9375 h -27.813 z m 0,31.2502 h 27.734 v 5.9375 h -27.734 z m 0,-15.7812 h 25.078 v 5.8594 h -25.078 z"
       id="path7"
       style="fill:#6b0071;fill-opacity:1;stroke:none;stroke-width:2.9831;stroke-dasharray:none;stroke-opacity:1;paint-order:markers stroke fill" />
  </g>
</svg>
