<?xml version="1.0" encoding="UTF-8" standalone="no"?>
<svg
   viewBox="0 0 199.73288 192.81707"
   class="css-1j8o68f"
   version="1.1"
   id="svg6"
   sodipodi:docname="logo.svg"
   width="199.73288"
   height="192.81708"
   inkscape:version="1.3 (0e150ed6c4, 2023-07-21)"
   inkscape:export-filename="logo.png"
   inkscape:export-xdpi="96"
   inkscape:export-ydpi="96"
   xmlns:inkscape="http://www.inkscape.org/namespaces/inkscape"
   xmlns:sodipodi="http://sodipodi.sourceforge.net/DTD/sodipodi-0.dtd"
   xmlns:xlink="http://www.w3.org/1999/xlink"
   xmlns="http://www.w3.org/2000/svg"
   xmlns:svg="http://www.w3.org/2000/svg">
  <sodipodi:namedview
     id="namedview6"
     pagecolor="#505050"
     bordercolor="#eeeeee"
     borderopacity="1"
     inkscape:showpageshadow="0"
     inkscape:pageopacity="0"
     inkscape:pagecheckerboard="false"
     inkscape:deskcolor="#505050"
     inkscape:zoom="4.0257143"
     inkscape:cx="164.44287"
     inkscape:cy="144.69482"
     inkscape:window-width="1920"
     inkscape:window-height="1009"
     inkscape:window-x="-8"
     inkscape:window-y="-8"
     inkscape:window-maximized="1"
     inkscape:current-layer="SvgjsG1546" />
  <defs
     id="SvgjsDefs1545">
    <linearGradient
       id="SvgjsLinearGradient1550">
      <stop
         id="SvgjsStop1551"
         stop-color="#ef4136"
         offset="0" />
      <stop
         id="SvgjsStop1552"
         stop-color="#fbb040"
         offset="1" />
    </linearGradient>
    <linearGradient
       inkscape:collect="always"
       xlink:href="#SvgjsLinearGradient1550"
       id="linearGradient6"
       gradientTransform="scale(1.0177756,0.98253485)"
       x1="6.4295464"
       y1="8.1425304"
       x2="90.988052"
       y2="8.1425304"
       gradientUnits="userSpaceOnUse" />
    <linearGradient
       inkscape:collect="always"
       xlink:href="#SvgjsLinearGradient1550"
       id="linearGradient7"
       gradientTransform="scale(0.99991817,1.0000818)"
       x1="22.504843"
       y1="45.80925"
       x2="40.835342"
       y2="45.80925"
       gradientUnits="userSpaceOnUse" />
    <linearGradient
       inkscape:collect="always"
       xlink:href="#SvgjsLinearGradient1550"
       id="linearGradient8"
       gradientTransform="scale(0.99990696,1.0000931)"
       x1="66.184158"
       y1="45.808739"
       x2="71.557655"
       y2="45.808739"
       gradientUnits="userSpaceOnUse" />
    <linearGradient
       inkscape:collect="always"
       xlink:href="#SvgjsLinearGradient1550"
       id="linearGradient9"
       gradientTransform="scale(0.99990696,1.0000931)"
       x1="66.184158"
       y1="59.032509"
       x2="71.557655"
       y2="59.032509"
       gradientUnits="userSpaceOnUse" />
    <linearGradient
       inkscape:collect="always"
       xlink:href="#SvgjsLinearGradient1550"
       id="linearGradient10"
       gradientTransform="scale(0.99990696,1.0000931)"
       x1="59.571545"
       y1="52.421124"
       x2="64.945045"
       y2="52.421124"
       gradientUnits="userSpaceOnUse" />
    <linearGradient
       inkscape:collect="always"
       xlink:href="#SvgjsLinearGradient1550"
       id="linearGradient11"
       gradientTransform="scale(1.000093,0.99990697)"
       x1="72.784225"
       y1="52.430878"
       x2="78.15873"
       y2="52.430878"
       gradientUnits="userSpaceOnUse" />
    <linearGradient
       inkscape:collect="always"
       xlink:href="#SvgjsLinearGradient1550"
       id="linearGradient12"
       gradientTransform="scale(1.0177756,0.98253485)"
       x1="6.4295464"
       y1="8.1425304"
       x2="90.988052"
       y2="8.1425304"
       gradientUnits="userSpaceOnUse" />
    <linearGradient
       inkscape:collect="always"
       xlink:href="#SvgjsLinearGradient1550"
       id="linearGradient13"
       gradientTransform="scale(1.0177756,0.98253485)"
       x1="6.4295464"
       y1="8.1425304"
       x2="90.988052"
       y2="8.1425304"
       gradientUnits="userSpaceOnUse" />
  </defs>
  <g
     id="SvgjsG1546"
     featurekey="symbolFeature-0"
     transform="matrix(0.7820876,0,0,0.7820876,128.77144,20.07378)"
     fill="url(#SvgjsLinearGradient1550)"
     style="fill:url(#linearGradient13)">
    <g
       id="g6"
       style="fill:url(#linearGradient12)"
       transform="matrix(2.9674597,0,0,2.9674597,-184.06948,-49.407547)">
      <path
         d="M 90.041,59.881 C 86.287,45.561 81.96,36.141 71.994,33.434 c -1.521,-0.412 -2.953,-0.612 -4.38,-0.612 -3.007,0 -5.426,0.905 -7.773,1.783 -2.157,0.807 -4.566,1.692 -7.9,1.992 0.432,-4.761 -0.388,-7.032 -1.184,-9.223 -0.606,-1.669 -1.179,-3.245 -1.318,-6.071 -0.305,-6.189 6.813,-10.98 6.885,-11.028 0.57,-0.378 0.728,-1.146 0.351,-1.718 -0.378,-0.571 -1.145,-0.729 -1.718,-0.351 -0.341,0.225 -8.369,5.609 -7.994,13.22 0.157,3.199 0.852,5.108 1.464,6.794 0.785,2.161 1.463,4.027 1.021,8.45 -10e-4,0.013 10e-4,0.025 0,0.037 -4.562,-0.022 -7.535,-1.128 -10.159,-2.11 -2.333,-0.875 -4.747,-1.779 -7.742,-1.779 -1.429,0 -2.864,0.201 -4.385,0.615 -9.975,2.708 -14.301,12.127 -18.047,26.448 -4.344,16.587 -3.143,27.707 3.295,30.51 1.048,0.459 2.151,0.691 3.278,0.691 5.724,0 10.987,-6.018 14.833,-10.416 l 1.046,-1.213 c 3.135,-3.666 9.7,-5.768 18.012,-5.768 9.039,0 14.593,1.779 18.009,5.774 l 1.048,1.215 c 3.841,4.392 9.101,10.404 14.829,10.404 1.132,0 2.233,-0.231 3.274,-0.687 6.435,-2.803 7.638,-13.923 3.302,-30.51 z m -4.627,27.482 c -0.629,0.276 -1.268,0.41 -1.95,0.41 -4.227,0 -8.913,-5.356 -12.332,-9.266 l -1.037,-1.203 c -4.097,-4.789 -10.424,-6.926 -20.517,-6.926 -9.28,0 -16.76,2.523 -20.52,6.921 l -1.039,1.203 c -3.422,3.913 -8.109,9.274 -12.333,9.274 -0.667,0 -1.326,-0.141 -1.956,-0.416 C 9.221,85.398 8.652,74.691 12.313,60.718 15.758,47.54 19.589,38.913 28.025,36.622 c 1.238,-0.336 2.39,-0.499 3.52,-0.499 2.397,0 4.437,0.764 6.597,1.574 2.905,1.086 6.197,2.318 11.436,2.318 5.23,0 8.524,-1.232 11.437,-2.322 2.153,-0.806 4.188,-1.568 6.6,-1.568 1.132,0 2.281,0.163 3.514,0.497 8.427,2.29 12.26,10.918 15.713,24.096 3.653,13.974 3.081,24.681 -1.428,26.645 z"
         id="path1"
         style="fill:url(#linearGradient6)" />
      <path
         d="m 24.087,56.632 h 5.855 v 5.928 c 0,0.859 0.757,1.585 1.653,1.585 0.896,0 1.653,-0.726 1.653,-1.585 v -5.928 h 6 c 0.858,0 1.584,-0.757 1.584,-1.653 0,-0.896 -0.726,-1.653 -1.584,-1.653 h -6 v -5.928 c 0,-0.859 -0.757,-1.585 -1.653,-1.585 -0.896,0 -1.653,0.726 -1.653,1.585 v 5.928 h -5.855 c -0.859,0 -1.584,0.757 -1.584,1.653 0,0.896 0.726,1.653 1.584,1.653 z"
         id="path2"
         style="fill:url(#linearGradient7)" />
      <path
         d="m 68.865,45.813 c -1.481,0 -2.687,1.205 -2.687,2.687 0,1.482 1.205,2.687 2.687,2.687 1.48,0 2.686,-1.205 2.686,-2.687 0,-1.482 -1.205,-2.687 -2.686,-2.687 z"
         id="path3"
         style="fill:url(#linearGradient8)" />
      <path
         d="m 68.865,59.038 c -1.481,0 -2.687,1.205 -2.687,2.687 0,1.482 1.205,2.687 2.687,2.687 1.48,0 2.686,-1.205 2.686,-2.687 0,-1.482 -1.205,-2.687 -2.686,-2.687 z"
         id="path4"
         style="fill:url(#linearGradient9)" />
      <path
         d="m 62.252,52.426 c -1.48,0 -2.686,1.205 -2.686,2.686 0,1.481 1.205,2.688 2.686,2.688 1.481,0 2.687,-1.206 2.687,-2.688 -10e-4,-1.481 -1.206,-2.686 -2.687,-2.686 z"
         id="path5"
         style="fill:url(#linearGradient10)" />
      <path
         d="m 75.478,52.426 c -1.481,0 -2.687,1.205 -2.687,2.686 0,1.481 1.205,2.688 2.687,2.688 1.482,0 2.688,-1.206 2.688,-2.688 -10e-4,-1.481 -1.206,-2.686 -2.688,-2.686 z"
         id="path6"
         style="fill:url(#linearGradient11)" />
    </g>
  </g>
</svg>
