<?xml version="1.0" encoding="UTF-8" standalone="no"?>
<svg
   width="396"
   height="125.26601312298894"
   viewBox="0 0 350 110.71491058850032"
   class="css-1j8o68f"
   version="1.1"
   id="svg7"
   sodipodi:docname="logoMovil.svg"
   inkscape:version="1.3 (0e150ed6c4, 2023-07-21)"
   xmlns:inkscape="http://www.inkscape.org/namespaces/inkscape"
   xmlns:sodipodi="http://sodipodi.sourceforge.net/DTD/sodipodi-0.dtd"
   xmlns="http://www.w3.org/2000/svg"
   xmlns:svg="http://www.w3.org/2000/svg">
  <sodipodi:namedview
     id="namedview7"
     pagecolor="#505050"
     bordercolor="#eeeeee"
     borderopacity="1"
     inkscape:showpageshadow="0"
     inkscape:pageopacity="0"
     inkscape:pagecheckerboard="0"
     inkscape:deskcolor="#505050"
     inkscape:zoom="3.5580808"
     inkscape:cx="198"
     inkscape:cy="62.533712"
     inkscape:window-width="1920"
     inkscape:window-height="1009"
     inkscape:window-x="-8"
     inkscape:window-y="-8"
     inkscape:window-maximized="1"
     inkscape:current-layer="svg7" />
  <defs
     id="SvgjsDefs1545">
    <linearGradient
       id="SvgjsLinearGradient1550">
      <stop
         id="SvgjsStop1551"
         stop-color="#ef4136"
         offset="0" />
      <stop
         id="SvgjsStop1552"
         stop-color="#fbb040"
         offset="1" />
    </linearGradient>
  </defs>
  <g
     id="SvgjsG1546"
     featurekey="symbolFeature-0"
     transform="matrix(0.7820876025810609,0,0,0.7820876025810609,136.88214130580928,-6.256952174410227)"
     fill="url(#SvgjsLinearGradient1550)">
    <g
       id="g6">
      <path
         d="M90.041,59.881c-3.754-14.32-8.081-23.74-18.047-26.447c-1.521-0.412-2.953-0.612-4.38-0.612   c-3.007,0-5.426,0.905-7.773,1.783c-2.157,0.807-4.566,1.692-7.9,1.992c0.432-4.761-0.388-7.032-1.184-9.223   c-0.606-1.669-1.179-3.245-1.318-6.071c-0.305-6.189,6.813-10.98,6.885-11.028c0.57-0.378,0.728-1.146,0.351-1.718   c-0.378-0.571-1.145-0.729-1.718-0.351c-0.341,0.225-8.369,5.609-7.994,13.22c0.157,3.199,0.852,5.108,1.464,6.794   c0.785,2.161,1.463,4.027,1.021,8.45c-0.001,0.013,0.001,0.025,0,0.037c-4.562-0.022-7.535-1.128-10.159-2.11   c-2.333-0.875-4.747-1.779-7.742-1.779c-1.429,0-2.864,0.201-4.385,0.615c-9.975,2.708-14.301,12.127-18.047,26.448   c-4.344,16.587-3.143,27.707,3.295,30.51c1.048,0.459,2.151,0.691,3.278,0.691c5.724,0,10.987-6.018,14.833-10.416l1.046-1.213   c3.135-3.666,9.7-5.768,18.012-5.768c9.039,0,14.593,1.779,18.009,5.774l1.048,1.215c3.841,4.392,9.101,10.404,14.829,10.404   c1.132,0,2.233-0.231,3.274-0.687C93.174,87.588,94.377,76.468,90.041,59.881z M85.414,87.363c-0.629,0.276-1.268,0.41-1.95,0.41   c-4.227,0-8.913-5.356-12.332-9.266l-1.037-1.203c-4.097-4.789-10.424-6.926-20.517-6.926c-9.28,0-16.76,2.523-20.52,6.921   l-1.039,1.203c-3.422,3.913-8.109,9.274-12.333,9.274c-0.667,0-1.326-0.141-1.956-0.416c-4.509-1.962-5.078-12.669-1.417-26.642   c3.445-13.178,7.276-21.805,15.712-24.096c1.238-0.336,2.39-0.499,3.52-0.499c2.397,0,4.437,0.764,6.597,1.574   c2.905,1.086,6.197,2.318,11.436,2.318c5.23,0,8.524-1.232,11.437-2.322c2.153-0.806,4.188-1.568,6.6-1.568   c1.132,0,2.281,0.163,3.514,0.497c8.427,2.29,12.26,10.918,15.713,24.096C90.495,74.692,89.923,85.399,85.414,87.363z"
         id="path1" />
      <path
         d="M24.087,56.632h5.855v5.928c0,0.859,0.757,1.585,1.653,1.585s1.653-0.726,1.653-1.585v-5.928h6   c0.858,0,1.584-0.757,1.584-1.653s-0.726-1.653-1.584-1.653h-6v-5.928c0-0.859-0.757-1.585-1.653-1.585s-1.653,0.726-1.653,1.585   v5.928h-5.855c-0.859,0-1.584,0.757-1.584,1.653S23.229,56.632,24.087,56.632z"
         id="path2" />
      <path
         d="M68.865,45.813c-1.481,0-2.687,1.205-2.687,2.687s1.205,2.687,2.687,2.687c1.48,0,2.686-1.205,2.686-2.687   S70.346,45.813,68.865,45.813z"
         id="path3" />
      <path
         d="M68.865,59.038c-1.481,0-2.687,1.205-2.687,2.687s1.205,2.687,2.687,2.687c1.48,0,2.686-1.205,2.686-2.687   S70.346,59.038,68.865,59.038z"
         id="path4" />
      <path
         d="M62.252,52.426c-1.48,0-2.686,1.205-2.686,2.686c0,1.481,1.205,2.688,2.686,2.688c1.481,0,2.687-1.206,2.687-2.688   C64.938,53.631,63.733,52.426,62.252,52.426z"
         id="path5" />
      <path
         d="M75.478,52.426c-1.481,0-2.687,1.205-2.687,2.686c0,1.481,1.205,2.688,2.687,2.688c1.482,0,2.688-1.206,2.688-2.688   C78.165,53.631,76.96,52.426,75.478,52.426z"
         id="path6" />
    </g>
  </g>
  <g
     id="SvgjsG1547"
     featurekey="nameFeature-0"
     transform="matrix(0.6885954736951821,0,0,0.6885954736951821,-3.8739005073264137,84.08554516365069)"
     fill="#000000"
     style="fill:#000000;fill-opacity:1">
    <path
       d="M33.438 8.75 c-0.67711 -1.4584 -1.6147 -2.7605 -2.8126 -3.9063 c-1.25 -1.0938 -2.7344 -1.9531 -4.4531 -2.5781 c-1.875 -0.57289 -3.8541 -0.85938 -5.9375 -0.85938 l-14.609 0 l0 5.8594 l14.063 0 c2.3438 0 4.2969 0.57289 5.8594 1.7188 c1.4584 1.0938 2.1875 2.7604 2.1875 5 c0 2.0313 -0.70313 3.6719 -2.1094 4.9219 c-1.5104 1.1979 -3.4895 1.7969 -5.9374 1.7969 l-14.063 0 l0 17.891 l6.4844 0 l0 -11.953 l7.3438 0 c1.9271 0 3.8802 -0.28648 5.8594 -0.85938 c1.8229 -0.57289 3.3854 -1.3802 4.6875 -2.4218 c1.3541 -1.0416 2.4219 -2.3698 3.2031 -3.9844 c0.78125 -1.5625 1.1719 -3.3854 1.1719 -5.4688 c0 -1.9791 -0.3125 -3.6979 -0.9375 -5.1563 z M63.281 16.875 l0 -15.547 l-6.5625 0 l0 37.344 l6.5625 0 l0 -21.797 z M96.48400000000001 29.375 l3.5156 -4.6875 l-0.078125 -0.15625 z M116.875 1.4059999999999988 l-7.5 0 l-9.2969 13.359 l-9.2188 -13.359 l-7.7344 0 l13.047 18.281 l-13.516 18.906 l8.3594 0 z M117.344 38.5937 l-10.313 -14.609 l-3.9063 5.2344 l6.5625 9.375 l7.6563 0 z M126.0938 1.4059999999999988 l27.813 0 l0 5.9375 l-27.813 0 l0 -5.9375 z M126.0938 32.6562 l27.734 0 l0 5.9375 l-27.734 0 l0 -5.9375 z M126.0938 16.875 l25.078 0 l0 5.8594 l-25.078 0 l0 -5.8594 z M167.0313 1.4059999999999988 l6.4063 0 l0 31.25 l19.531 0 l0 5.9375 l-25.938 0 l0 -37.188 z M231.953 38.5937 l6.5625 0 l0 -27.422 l-6.5625 9.6094 l0 17.813 z M238.516 1.4059999999999988 l-7.0313 0 l-11.484 17.813 l-11.406 -17.813 l-7.0313 0 l0 37.188 l6.5625 0 l0 -26.406 l11.719 17.578 l0.23438 0 l10.234 -15.156 c0.052109 -0.20836 2.7865 -4.6094 8.2031 -13.203 z M246.0938 1.4059999999999988 l27.813 0 l0 5.9375 l-27.813 0 l0 -5.9375 z M246.0938 32.6562 l27.734 0 l0 5.9375 l-27.734 0 l0 -5.9375 z M246.0938 16.875 l25.078 0 l0 5.8594 l-25.078 0 l0 -5.8594 z M296.484 29.375 l3.5156 -4.6875 l-0.078125 -0.15625 z M316.875 1.4059999999999988 l-7.5 0 l-9.2969 13.359 l-9.2188 -13.359 l-7.7344 0 l13.047 18.281 l-13.516 18.906 l8.3594 0 z M317.344 38.5937 l-10.313 -14.609 l-3.9063 5.2344 l6.5625 9.375 l7.6563 0 z M344.922 1.4059999999999988 c-2.8646 0 -5.5209 0.4686 -7.9688 1.4061 c-2.3959 0.9375 -4.4792 2.2396 -6.2501 3.9063 c-1.7188 1.5625 -3.0729 3.5416 -4.0625 5.9375 c-0.83336 2.0313 -1.3021 4.2448 -1.4063 6.6406 l0 2.3438 l6.875 0 l0 -2.3438 c0.10414 -1.7709 0.39063 -3.2031 0.85938 -4.2969 c0.625 -1.5104 1.4844 -2.8645 2.5781 -4.0624 c1.3021 -1.1979 2.6563 -2.0833 4.0625 -2.6562 c1.6146 -0.625 3.3855 -0.9375 5.3126 -0.9375 l9.8438 0 l0 -5.9375 l-9.8438 0 z M347.891 18.984 l0.000076294 1.4843 l0.078125 0 c-0.10414 1.6666 -0.41664 3.2031 -0.9375 4.6094 c-0.67711 1.6146 -1.5365 2.9427 -2.5781 3.9844 c-1.1459 1.1459 -2.5 2.0313 -4.0625 2.6563 c-1.6146 0.625 -3.3855 0.9375 -5.3126 0.9375 l-9.8438 0 l0 5.9375 l9.8438 0 c2.8646 0 5.5209 -0.46875 7.9688 -1.4063 c2.3959 -0.9375 4.4792 -2.2396 6.2501 -3.9063 c1.8229 -1.8229 3.177 -3.802 4.0624 -5.9374 c0.9375 -2.0834 1.4063 -4.375 1.4063 -6.875 l0 -1.4844 l-6.875 0 z M383.281 7.5 l11.797 0 l0 -6.0938 l-30.156 0 l0 6.0938 l18.359 0 z M376.719 13.594000000000001 l6.5625 0 l0 25 l-6.5625 0 l0 -25 z M417.344 32.6562 c-0.78125 -0.15625 -1.5105 -0.3907 -2.1876 -0.7032 c-1.4584 -0.67711 -2.7344 -1.6146 -3.8281 -2.8125 c-1.0416 -1.0938 -1.875 -2.4479 -2.5 -4.0625 c-0.57289 -1.6146 -0.85938 -3.2552 -0.85938 -4.9219 l0 -0.15625 l0 -0.23438 c0 -1.7188 0.28648 -3.3854 0.85938 -5 c0.67711 -1.6666 1.5105 -2.9948 2.5001 -3.9844 c1.0416 -1.1979 2.2916 -2.1094 3.75 -2.7344 c0.88539 -0.41664 1.6406 -0.67703 2.2656 -0.78117 l0 -5.8594 c-1.8229 0.26039 -3.4375 0.70313 -4.8438 1.3281 c-2.2916 0.98961 -4.2448 2.3177 -5.8594 3.9844 s-2.8906 3.6458 -3.8281 5.9374 s-1.4063 4.6875 -1.4063 7.1875 l0 0.15625 l0 0.23438 c0 2.5521 0.46875 4.948 1.4063 7.1876 c0.83336 2.2396 2.0834 4.1927 3.75 5.8594 c1.6666 1.7188 3.6198 3.0469 5.8594 3.9844 c1.4063 0.625 3.0469 1.0677 4.9219 1.3281 l0 -5.9375 z M438.594 20 l0.000076294 -0.23438 c0 -2.5521 -0.46875 -4.948 -1.4063 -7.1876 c-0.9375 -2.2916 -2.2135 -4.2708 -3.8281 -5.9374 c-1.5625 -1.6666 -3.4896 -2.9688 -5.7813 -3.9063 c-1.3021 -0.625 -2.8906 -1.0677 -4.7656 -1.3281 l0 5.9375 l0.9375 0.3125 c0.46875 0.15625 0.83336 0.28648 1.0938 0.39063 c1.4584 0.67711 2.7344 1.6146 3.8281 2.8125 c1.0416 1.0938 1.875 2.4479 2.5 4.0625 c0.57289 1.6146 0.85938 3.2552 0.85938 4.9219 l0 0.15625 l0 0.23438 c0 1.7188 -0.28648 3.3854 -0.85938 5 c-0.67711 1.6666 -1.5105 2.9948 -2.5001 3.9844 c-1.0416 1.1979 -2.2916 2.1094 -3.75 2.7344 c-0.67711 0.3125 -1.3802 0.54688 -2.1094 0.70313 l0 5.9375 c1.5625 -0.20836 3.125 -0.65109 4.6875 -1.3282 c2.1354 -0.88539 4.0885 -2.2135 5.8594 -3.9844 c1.7188 -1.8229 2.9948 -3.802 3.8281 -5.9374 c0.9375 -2.2916 1.4063 -4.6875 1.4063 -7.1875 l0 -0.15625 z M475.781 38.5937 l-10.078 -14.063 c1.3541 -0.41664 2.552 -0.91141 3.5937 -1.4843 c1.1459 -0.72914 2.0834 -1.5364 2.8125 -2.4218 c0.83336 -0.98961 1.4323 -2.0573 1.797 -3.2032 c0.46875 -1.25 0.70313 -2.6563 0.70313 -4.2188 c0 -1.8229 -0.3125 -3.4635 -0.9375 -4.9219 c-0.625 -1.4063 -1.5365 -2.6302 -2.7344 -3.6719 c-1.1459 -0.98961 -2.6042 -1.7709 -4.3751 -2.3438 c-1.8229 -0.57289 -3.75 -0.85938 -5.7813 -0.85938 l-16.563 0 l0 5.9375 l16.016 0 c2.4479 0 4.3489 0.52086 5.703 1.5625 s2.0313 2.6041 2.0313 4.6875 c0 1.9271 -0.67711 3.4375 -2.0313 4.5313 c-1.3541 1.1459 -3.2291 1.7188 -5.625 1.7188 l-16.094 0 l0 18.75 l6.4844 0 l0 -12.969 l8.2031 0 l9.1406 12.969 l7.7344 0 l0 0 z M486.0938 1.4059999999999988 l27.813 0 l0 5.9375 l-27.813 0 l0 -5.9375 z M486.0938 32.6562 l27.734 0 l0 5.9375 l-27.734 0 l0 -5.9375 z M486.0938 16.875 l25.078 0 l0 5.8594 l-25.078 0 l0 -5.8594 z"
       id="path7"
       style="fill:#000000;fill-opacity:1" />
  </g>
</svg>
