<?xml version="1.0" encoding="UTF-8" standalone="no"?>
<svg version="1.1" preserveAspectRatio="xMidYMid" viewBox="848 471 499.99999 150" id="svg23"
   sodipodi:docname="newLogo.svg" width="500" height="150" inkscape:version="1.3 (0e150ed6c4, 2023-07-21)"
   inkscape:export-filename="newLogo.png" inkscape:export-xdpi="96" inkscape:export-ydpi="96"
   xmlns:inkscape="http://www.inkscape.org/namespaces/inkscape"
   xmlns:sodipodi="http://sodipodi.sourceforge.net/DTD/sodipodi-0.dtd" xmlns:xlink="http://www.w3.org/1999/xlink"
   xmlns="http://www.w3.org/2000/svg" xmlns:svg="http://www.w3.org/2000/svg">
   <defs id="defs23">
      <style type="text/css">
         @font-face {
            font-family: "Press Start 2P";
            /* descriptors should match your styles */
            src: url("assets/fonts/PressStart2P.ttf") format("truetype");
         }
      </style>
      <linearGradient id="linearGradient26" inkscape:collect="always">
         <stop style="stop-color:#cc1700;stop-opacity:1;" offset="0" id="stop26" />
         <stop style="stop-color:#d88900;stop-opacity:1;" offset="0.5" id="stop28" />
         <stop style="stop-color:#e4fb00;stop-opacity:1;" offset="1" id="stop27" />
      </linearGradient>
      <filter inkscape:collect="always" style="color-interpolation-filters:sRGB" id="filter25" x="-0.16653855"
         y="-0.41834481" width="1.3330771" height="1.8366896">
         <feGaussianBlur inkscape:collect="always" stdDeviation="25.015061" id="feGaussianBlur25" />
      </filter>
      <linearGradient inkscape:collect="always" xlink:href="#linearGradient26" id="linearGradient27" x1="684.21997"
         y1="545.43323" x2="1415.9008" y2="545.43323" gradientUnits="userSpaceOnUse" />
   </defs>
   <sodipodi:namedview id="namedview23" pagecolor="#505050" bordercolor="#eeeeee" borderopacity="1"
      inkscape:showpageshadow="0" inkscape:pageopacity="0" inkscape:pagecheckerboard="0" inkscape:deskcolor="#505050"
      inkscape:zoom="1.8477273" inkscape:cx="289.00369" inkscape:cy="56.014759" inkscape:window-width="1920"
      inkscape:window-height="1009" inkscape:window-x="1912" inkscape:window-y="-8" inkscape:window-maximized="1"
      inkscape:current-layer="g29" showguides="true" />
   <g data-item-type="shape" data-item="Shape" data-logo-item="" id="logo__item--shape_1" class="logo__item"
      transform="matrix(0.99805882,0,0,0.99996667,65.542699,1.9802184)">
      <g class="logo__item__inner" transform="matrix(1.6917478,0,0,1.6917478,853.8,458.3)" id="g2">
         <g id="g1">
            <circle fill="#fdfdfd" cx="43" cy="51" r="41.200001" data-part-id="logo__item--shape_1__0" id="circle1" />
         </g>
      </g>
   </g>
   <g data-item-type="text" data-item="Business" id="logo__item--business" class="logo__item"
      transform="translate(41.245968,-47.651964)" />
   <g data-item-type="image" data-item="Image" data-logo-item="" id="logo__item--logo_0" class="logo__item"
      transform="translate(63.673027,0.78548003)">
      <g class="logo__item__inner" transform="matrix(0.11789437,0,0,0.11789437,837.48438,457.5)" id="g23">
         <g id="g22">
            <linearGradient id="logo__item--logo_0__0" gradientUnits="userSpaceOnUse" x1="416.71487" y1="164.61671"
               x2="416.71487" y2="693.40228" gradientTransform="scale(1.1055521,0.90452544)">
               <stop offset="0" style="stop-color:#f801bf" id="stop4" />
               <stop offset="1" style="stop-color:#ffd801" id="stop5" />
            </linearGradient>
            <path fill="url(#logo__item--logo_0__0)"
               d="m 530.8,429.4 c 28.4,13.7 52,37.6 70.3,60.6 H 753 V 148.9 c -284,0.9 -528.7,205.9 -584.6,478.3 0.8,-1.6 1.9,-2.9 2.7,-4.5 C 249.9,458.3 411.2,372 530.8,429.4 Z"
               data-part-id="logo__item--logo_0__0" id="path5" style="fill:url(#logo__item--logo_0__0)" />
            <linearGradient id="logo__item--logo_0__1" gradientUnits="userSpaceOnUse" x1="1001.1739" y1="159.26421"
               x2="1001.1739" y2="686.88007" gradientTransform="scale(1.0646002,0.93931971)">
               <stop offset="0" style="stop-color:#f815c3" id="stop6" />
               <stop offset="1" style="stop-color:#eac808" id="stop7" />
            </linearGradient>
            <path fill="url(#logo__item--logo_0__1)"
               d="m 1002,434.2 c 121.9,-49.5 275.3,44.7 344.7,211 C 1299.3,372.8 1070,163.2 785,149.6 V 490 h 143.3 c 19.9,-23 44.6,-44 73.7,-55.8 z"
               data-part-id="logo__item--logo_0__1" id="path7" style="fill:url(#logo__item--logo_0__1)" />
            <linearGradient id="logo__item--logo_0__2" gradientUnits="userSpaceOnUse" x1="484.48236" y1="1399.9661"
               x2="484.48236" y2="2092.6545" gradientTransform="scale(1.5520689,0.64430131)">
               <stop offset="0" style="stop-color:#eac808" id="stop8" />
               <stop offset="1" style="stop-color:#f815c3" id="stop9" />
            </linearGradient>
            <path fill="url(#logo__item--logo_0__2)"
               d="m 938.8,902 h -375 c -85.6,118 -217.1,172.3 -318.7,123.4 -11,-5.3 -21.2,-12.3 -30.7,-19.6 96.2,202.7 302.7,342.5 542,342.5 232.1,0 433.5,-132.1 533.1,-325.1 -12,8.9 -25,17.8 -39.2,23.5 C 1145.4,1089.5 1016.8,1020 938.8,902 Z M 759,1298.6 c -141.3,0 -255.9,-44.6 -255.9,-99.6 0,-55 114.6,-99.6 255.9,-99.6 141.3,0 255.9,44.6 255.9,99.6 0,55 -114.6,99.6 -255.9,99.6 z"
               data-part-id="logo__item--logo_0__2" id="path9" style="fill:url(#logo__item--logo_0__2)" />
            <path opacity="0.32" fill="#bac1ce"
               d="m 1332.5188,715.2 -43,15.6 c 30.7,303.3 -156.2,281.2 -156.2,281.2 257.8,35.3 199.2,-296.8 199.2,-296.8 z"
               data-part-id="logo__item--logo_0__3" id="path10" style="fill:#000000;fill-opacity:1" />
            <path opacity="0.32" fill="#a9a9a9"
               d="m 317.67179,1011.1 c 156.3,7.8 261.8,-165.1 261.8,-165.1 h 339.8 l 3.9,-42 -398.4,-3.3 c 0,0 -289.1,343.5 -359.4,-47.1 0,-0.1 -3.9,249.7 152.3,257.5 z"
               data-part-id="logo__item--logo_0__4" id="path11" style="fill:#000000;fill-opacity:1" />
            <path fill="#3a5675"
               d="m 389.6,809.8 c 18.5,16.9 51.4,11 73.4,-13.1 16.9,-18.5 22.5,-42.3 16,-60.1 -0.7,14 -7,29.2 -18.6,41.9 -22.1,24.1 -55,30 -73.4,13.1 -4.3,-3.9 -7.4,-8.8 -9.4,-14.2 -0.6,12.6 3.2,24.3 12,32.4 z"
               data-part-id="logo__item--logo_0__5" id="path12" />
            <path fill="#3a5675"
               d="m 381,644.3 c 16.9,-18.5 22.6,-42.4 15.9,-60.1 -0.7,14 -7,29.2 -18.6,41.9 -22.1,24.1 -55,30 -73.4,13.1 -4.3,-3.9 -7.4,-8.8 -9.4,-14.2 -0.6,12.7 3.3,24.4 12,32.4 18.6,16.9 51.4,11 73.5,-13.1 z"
               data-part-id="logo__item--logo_0__6" id="path13" />
            <path fill="#3a5675"
               d="m 225.6,825.4 c 18.5,16.9 51.3,11 73.4,-13.1 16.9,-18.5 22.6,-42.3 16,-60.1 -0.7,14 -7,29.2 -18.6,41.8 -22.1,24.1 -55,30 -73.4,13.1 -4.3,-3.9 -7.4,-8.8 -9.4,-14.2 -0.7,12.7 3.2,24.5 12,32.5 z"
               data-part-id="logo__item--logo_0__7" id="path14" />
            <path fill="#050505"
               d="m 460.4,778.4 c 11.6,-12.7 17.9,-27.8 18.6,-41.9 0.6,-12.7 -3.2,-24.4 -12,-32.4 -18.5,-16.9 -51.4,-11 -73.4,13.1 -16.9,18.5 -22.6,42.3 -16,60.1 2,5.4 5.1,10.3 9.4,14.2 18.5,16.9 51.4,11.1 73.4,-13.1 z"
               data-part-id="logo__item--logo_0__8" id="path15" />
            <path fill="#050505"
               d="m 378.4,626.1 c 11.6,-12.7 17.9,-27.9 18.6,-41.9 0.6,-12.7 -3.3,-24.4 -12,-32.4 -18.5,-16.9 -51.4,-11 -73.4,13.1 -16.9,18.5 -22.5,42.3 -15.9,60.1 2,5.4 5.1,10.3 9.4,14.2 18.4,16.9 51.2,11 73.3,-13.1 z"
               data-part-id="logo__item--logo_0__9" id="path16" />
            <path fill="#050505"
               d="m 296.4,794 c 11.6,-12.7 17.8,-27.8 18.6,-41.8 0.6,-12.7 -3.3,-24.4 -12,-32.4 -18.5,-16.9 -51.4,-11 -73.4,13.1 -16.9,18.5 -22.5,42.3 -16,60.1 2,5.4 5.1,10.3 9.4,14.2 18.5,16.8 51.3,11 73.4,-13.2 z"
               data-part-id="logo__item--logo_0__10" id="path17" />
            <path fill="#3a5675"
               d="M 1193.9,751 H 1149 v 8 h 44.9 c 17.3,0 31.3,-14.1 31.3,-31.3 0,-1.8 -0.2,-2.3 -0.5,-4 -2.6,14.8 -15.3,27.3 -30.8,27.3 z"
               data-part-id="logo__item--logo_0__11" id="path18" />
            <path fill="#3a5675"
               d="m 1041.6,751 c -15.5,0 -28.2,-12.6 -30.7,-27.3 -0.3,1.7 -0.5,2.8 -0.5,4.6 0,17.3 14,30.7 31.2,30.7 h 44.4 v -8 z"
               data-part-id="logo__item--logo_0__12" id="path19" />
            <path fill="#3a5675"
               d="m 1117.5,824.6 c -17.3,0 -31.5,-14 -31.5,-31.2 v 10.4 c 0,17.3 14.2,31.3 31.5,31.3 17.3,0 31.5,-14 31.5,-31.3 v -10.4 c 0,17.2 -14.2,31.2 -31.5,31.2 z"
               data-part-id="logo__item--logo_0__13" id="path20" />
            <path fill="#050505"
               d="m 1117.5,824.6 c 17.3,0 31.5,-14 31.5,-31.2 V 758.9 751 h 44.9 c 15.5,0 28.2,-12.6 30.7,-27.3 0.3,-1.7 0.5,-3 0.5,-4.8 0,-17.3 -14,-30.9 -31.3,-30.9 H 1149 V 651.5 641 c 0,-17.3 -14.2,-31.2 -31.5,-31.2 -17.3,0 -31.5,14 -31.5,31.2 v 10.4 36.6 h -44.4 c -17.3,0 -31.2,13 -31.2,30.2 0,1.8 0.2,4.3 0.5,6 2.5,14.8 15.2,26.8 30.7,26.8 h 44.4 v 7.9 34.5 c 0,17.2 14.2,31.2 31.5,31.2 z"
               data-part-id="logo__item--logo_0__14" id="path21" />
            <linearGradient id="logo__item--logo_0__15" gradientUnits="objectBoundingBox" x1="0.5" y1="0" x2="0.5"
               y2="1">
               <stop offset="0" style="stop-color:#333333" id="stop21" />
               <stop offset="1" style="stop-color:#999999" id="stop22" />
            </linearGradient>
            <path fill="#ffffff"
               d="m 759,1099.4 c -141.3,0 -255.9,44.6 -255.9,99.6 0,55 114.6,99.6 255.9,99.6 141.3,0 255.9,-44.6 255.9,-99.6 0,-55.1 -114.6,-99.6 -255.9,-99.6 z"
               data-part-id="logo__item--logo_0__15" id="path22" />
         </g>
      </g>
   </g>
   <g id="g29" transform="translate(91.897909,0.54120541)">
      <rect
         style="mix-blend-mode:normal;fill:url(#linearGradient27);stroke-width:2;paint-order:markers stroke fill;filter:url(#filter25)"
         id="rect25" width="360.49399" height="143.50876" x="869.81335" y="473.67883"
         transform="matrix(0.63289181,0,0,0.51051365,446.59732,267.5489)" />
      <text xml:space="preserve"
         style="font-size:30.4985px;font-family:'Press Start 2P';-inkscape-font-specification:'Press Start 2P';fill:#ffffff;fill-opacity:1;stroke:none;stroke-width:5.08308;stroke-opacity:1;paint-order:markers stroke fill"
         x="1002.9161" y="547.52069" id="text23">
         <tspan sodipodi:role="line" id="tspan23" x="1002.9161" y="547.52069"
            style="stroke:none;stroke-width:5.08308;stroke-opacity:1">VgStore</tspan>
         <tspan sodipodi:role="line" x="1002.9161" y="585.6438" id="tspan24"
            style="stroke:none;stroke-width:5.08308;stroke-opacity:1" />
      </text>
      <text xml:space="preserve"
         style="font-size:11.5118px;font-family:'Press Start 2P';-inkscape-font-specification:'Press Start 2P';fill:#ffffff;fill-opacity:1;stroke:none;stroke-width:1.91863;stroke-opacity:1;paint-order:markers stroke fill"
         x="1014.8817" y="574.97778" id="text25">
         <tspan sodipodi:role="line" id="tspan25" x="1014.8817" y="574.97778"
            style="stroke:none;stroke-width:1.91863;stroke-opacity:1">We <tspan
               style="fill:#ff0000;fill-opacity:1;stroke:#000000;stroke-opacity:1" id="tspan30">♥</tspan> Video Games
         </tspan>
      </text>
   </g>
</svg>